# xmcd
#
# Track frame offsets:
#	150
#	16826
#	41865
#	66092
#	83134
#	97532
#	113086
#	146683
#
# Disc length: 2344 seconds
#
# Revision: 1
# Processed by: cddbd v1.4PL0 Copyright (c) Steve Scherf et al.
# Submitted via: audiograbber 1.80.04
#
DISCID=5c092608
DTITLE=Various Artists fo Grolsch - Janksessions
DYEAR=2002
DGENRE=Blues
TTITLE0=Robert Cray Band - Don't be afraid of the dark
TTITLE1=Free - All right now
TTITLE2=Muddy Waters - Mannish boy
TTITLE3=Flavium - Nightlife
TTITLE4=Robert Palmer - Bad case of loving you
TTITLE5=David Knopfler - Lonely is the night
TTITLE6=Gary Moore - Parisienne walkways (live)
TTITLE7=Ernest Ranglin - Five thirty
EXTD=
EXTT0=
EXTT1=
EXTT2=
EXTT3=
EXTT4=
EXTT5=
EXTT6=
EXTT7=
PLAYORDER=
